<?xml version="1.0" encoding="UTF-8" standalone="no"?>
<svg
   xmlns:dc="http://purl.org/dc/elements/1.1/"
   xmlns:cc="http://creativecommons.org/ns#"
   xmlns:rdf="http://www.w3.org/1999/02/22-rdf-syntax-ns#"
   xmlns:svg="http://www.w3.org/2000/svg"
   xmlns="http://www.w3.org/2000/svg"
   xmlns:sodipodi="http://sodipodi.sourceforge.net/DTD/sodipodi-0.dtd"
   xmlns:inkscape="http://www.inkscape.org/namespaces/inkscape"
   viewBox="-80 -80 260 340"
   version="1.1">
  <sodipodi:namedview showgrid="true">
    <inkscape:grid
       type="xygrid"
       empspacing="4"
       spacingx="5"
       spacingy="5" />
  </sodipodi:namedview>
  <rect stroke="black" stroke-width="4" fill="#ffffb4" fill-opacity="0.78431374" x="0" y="-10" width="100" height="200"/>
    <text id="label" fill="#000000" font-size="24" text-anchor="middle" x="50" y="-20">Label</text>
  <g>
    <circle fill="#0000b2" id="pin:OE" cx="0" cy="0" r="3"/>
    <text fill="#808080" font-size="18" x="4" y="6">OE</text>
  </g>
  <g>
    <circle fill="#0000b2" id="pin:LHOEi" cx="0" cy="20" r="3"/>
    <text fill="#808080" font-size="18" x="4" y="26">LHOEi</text>
  </g>
  <g>
    <circle fill="#0000b2" id="pin:RHOEi" cx="0" cy="40" r="3"/>
    <text fill="#808080" font-size="18" x="4" y="46">RHOEi</text>
  </g>
  <g>
    <circle fill="#0000b2" id="pin:IN" cx="0" cy="60" r="3"/>
    <text fill="#808080" font-size="18" x="4" y="66">IN</text>
  </g>
  <g>
    <circle fill="#0000b2" id="pin:CLK" cx="0" cy="80" r="3"/>
    <text fill="#808080" font-size="18" x="4" y="86">CLK</text>
  </g>
  <g>
    <circle fill="#0000b2" id="pin:INC" cx="0" cy="100" r="3"/>
    <text fill="#808080" font-size="18" x="4" y="106">INC</text>
  </g>
  <g>
    <circle fill="#0000b2" id="pin:DEC" cx="0" cy="120" r="3"/>
    <text fill="#808080" font-size="18" x="4" y="126">DEC</text>
  </g>
  <g>
    <circle fill="#0000b2" id="pin:Reset" cx="0" cy="140" r="3"/>
    <text fill="#808080" font-size="18" x="4" y="146">Reset</text>
  </g>
  <g>
    <circle fill="#0000b2" id="pin:Load" cx="0" cy="160" r="3"/>
    <text fill="#808080" font-size="18" x="4" y="166">Load</text>
  </g>
  <g>
    <circle fill="#0000b2" id="pin:Enablei" cx="0" cy="180" r="3"/>
    <text fill="#808080" font-size="18" x="4" y="186">Enablei</text>
  </g>
  <g>
    <circle fill="#b20000" id="pin:OUT" cx="100" cy="0" r="3"/>
    <text fill="#808080" font-size="18" text-anchor="end" x="96" y="6">OUT</text>
  </g>
  <g>
    <circle fill="#b20000" id="pin:LHO" cx="100" cy="20" r="3"/>
    <text fill="#808080" font-size="18" text-anchor="end" x="96" y="26">LHO</text>
  </g>
  <g>
    <circle fill="#b20000" id="pin:RHO" cx="100" cy="40" r="3"/>
    <text fill="#808080" font-size="18" text-anchor="end" x="96" y="46">RHO</text>
  </g>
</svg>
